<?xml version="1.0" standalone="no"?>
<!DOCTYPE svg PUBLIC "-//W3C//DTD SVG 20010904//EN"
 "http://www.w3.org/TR/2001/REC-SVG-20010904/DTD/svg10.dtd">
<svg version="1.0" xmlns="http://www.w3.org/2000/svg"
 width="1325.000000pt" height="1284.000000pt" viewBox="0 0 1325.000000 1284.000000"
 preserveAspectRatio="xMidYMid meet">

<g transform="translate(0.000000,1284.000000) scale(0.100000,-0.100000)"
fill="#000000" stroke="none">
<path d="M5565 12805 c-107 -12 -134 -19 -251 -69 -73 -30 -159 -69 -192 -86
-81 -41 -173 -57 -376 -66 -139 -6 -165 -9 -146 -19 20 -11 13 -14 -65 -29
-49 -10 -99 -22 -113 -27 -38 -15 -38 -3 0 17 58 30 13 26 -54 -5 -59 -27
-138 -89 -138 -107 0 -4 5 -3 12 4 7 7 18 12 25 12 6 0 -20 -31 -60 -70 -40
-38 -78 -70 -84 -70 -7 0 -22 -21 -33 -46 -20 -42 -21 -53 -11 -133 13 -104 5
-153 -27 -161 -15 -3 -31 -22 -46 -55 -13 -27 -47 -78 -75 -113 -48 -60 -71
-106 -57 -119 3 -3 15 5 26 18 l21 24 -14 -35 c-8 -19 -20 -34 -26 -32 -8 1
-11 -7 -9 -21 1 -12 -7 -36 -18 -52 -30 -43 -44 -91 -44 -149 1 -60 23 -221
40 -289 11 -40 10 -63 -5 -145 -10 -53 -26 -119 -37 -145 -10 -26 -18 -51 -18
-55 0 -4 38 -6 85 -5 70 2 85 0 85 -12 0 -15 26 -21 32 -7 2 4 19 19 39 34 43
32 98 122 121 198 9 30 26 109 38 175 29 166 47 229 88 308 42 81 76 116 138
141 38 15 53 17 78 8 17 -5 66 -13 108 -17 65 -6 82 -4 108 12 l31 18 72 -37
c122 -63 205 -70 331 -30 l60 19 115 -29 c151 -37 271 -77 271 -89 0 -6 -8 -9
-17 -7 -29 5 -19 -50 15 -83 38 -38 59 -127 38 -168 -24 -46 -30 -96 -12 -110
9 -8 16 -22 16 -32 0 -11 8 -27 18 -37 16 -16 52 -106 52 -130 0 -6 -13 -24
-30 -40 -16 -17 -30 -40 -30 -51 0 -12 -6 -21 -15 -21 -8 0 -15 -5 -15 -11 0
-7 11 -8 31 -4 37 8 353 -4 344 -14 -4 -3 -17 -6 -28 -6 -15 0 -23 -7 -25 -21
-3 -20 3 -22 70 -28 40 -4 106 -6 146 -5 49 2 76 -1 81 -9 16 -26 151 2 151
30 0 5 9 8 20 8 11 0 20 -4 20 -10 0 -5 7 -10 15 -10 8 0 15 -4 15 -10 0 -5
11 -12 25 -16 14 -3 25 -10 25 -15 0 -22 50 10 54 34 1 8 10 22 20 32 15 15
19 16 26 4 5 -8 7 -24 3 -36 -4 -20 -1 -23 21 -23 16 0 26 6 26 15 0 22 17 18
23 -5 6 -23 39 -39 45 -22 5 15 32 16 32 2 0 -19 19 -10 26 12 6 20 7 21 17 2
6 -10 19 -26 29 -35 21 -19 24 -55 6 -62 -10 -4 -9 -8 2 -16 18 -13 20 -123 2
-129 -24 -8 -43 -34 -37 -52 3 -10 0 -23 -7 -29 -51 -43 -74 -61 -80 -61 -5 0
-8 -9 -8 -19 0 -33 -11 -51 -31 -51 -10 0 -19 -4 -19 -10 0 -5 5 -10 10 -10 6
0 10 -11 10 -25 0 -14 -4 -25 -10 -25 -5 0 -10 -11 -10 -25 0 -14 4 -25 8 -25
13 0 10 -33 -4 -47 -8 -8 -41 -13 -88 -13 -58 0 -79 -4 -92 -17 -13 -13 -19
-14 -22 -5 -5 15 -84 16 -99 1 -8 -8 -22 -6 -52 7 -23 10 -41 21 -41 26 0 13
-48 9 -52 -4 -3 -8 -47 -12 -155 -12 -108 -1 -154 -5 -166 -14 -8 -7 -30 -14
-47 -14 -22 -1 -30 -6 -29 -17 3 -29 -1 -34 -17 -20 -14 11 -16 10 -13 -11 2
-14 0 -31 -4 -37 -5 -8 -3 -13 5 -13 8 0 6 -6 -5 -17 -15 -15 -19 -16 -26 -4
-6 10 -10 10 -16 1 -4 -6 -13 -9 -21 -6 -8 3 -14 1 -14 -4 0 -6 -7 -10 -16
-10 -9 0 -36 -13 -61 -30 -24 -16 -46 -30 -49 -30 -3 0 -31 -17 -62 -38 -31
-21 -85 -58 -119 -81 -42 -27 -76 -61 -101 -100 -66 -98 -73 -141 -48 -264 23
-107 9 -147 -51 -147 -20 0 -32 -4 -28 -10 10 -16 -5 -12 -51 15 -61 36 -90
91 -98 186 -3 42 -17 114 -32 160 -25 78 -54 201 -54 224 0 5 8 -6 18 -25 l17
-35 3 28 c2 15 12 32 23 37 22 12 25 30 5 30 -31 0 -41 43 -46 201 0 9 -6 17
-12 16 -81 -3 -158 5 -156 15 4 19 -36 21 -77 4 -42 -18 -75 -21 -75 -7 0 13
-55 24 -79 16 -25 -8 -45 -80 -41 -153 7 -156 7 -155 -46 -232 -27 -39 -53
-79 -59 -90 -11 -22 -54 -40 -95 -40 -15 0 -33 -6 -39 -14 -15 -18 25 -68 69
-86 17 -7 38 -26 46 -42 l15 -30 -61 -56 c-72 -66 -109 -117 -135 -185 -25
-67 -39 -71 -32 -11 6 55 -7 233 -24 309 -6 28 -28 104 -49 170 -72 231 -76
260 -46 358 19 61 21 77 10 77 -18 0 -48 31 -52 53 -2 9 2 17 8 17 6 0 19 7
27 16 14 13 14 17 2 25 -25 16 -44 10 -82 -26 -20 -19 -41 -35 -46 -35 -5 0
-12 -6 -14 -12 -4 -10 -7 -10 -14 -1 -5 6 -30 13 -56 14 -62 4 -61 19 2 19 40
0 50 4 54 19 3 11 2 22 -1 25 -10 11 -168 6 -179 -5 -8 -8 -13 -8 -17 0 -4 6
-20 11 -37 11 -24 0 -29 -4 -29 -23 0 -12 6 -31 14 -42 22 -34 27 -71 11 -85
-12 -10 -18 -10 -30 0 -13 10 -19 10 -33 -4 -10 -9 -23 -16 -29 -16 -6 0 -16
-7 -23 -15 -14 -17 -30 -20 -30 -5 0 6 7 10 15 10 8 0 15 5 15 10 0 6 9 10 19
10 11 0 23 5 26 10 12 19 -30 9 -80 -18 -29 -16 -50 -34 -49 -44 1 -10 -5 -14
-15 -11 -9 2 -25 -5 -35 -16 -11 -12 -16 -21 -12 -21 4 0 -1 -12 -11 -27 -11
-16 -24 -39 -30 -53 -6 -14 -34 -51 -61 -83 -81 -95 -92 -180 -34 -262 22 -31
34 -39 53 -37 58 9 54 17 50 -121 -3 -126 -3 -128 27 -190 17 -34 52 -86 78
-115 46 -52 46 -54 47 -125 1 -93 -37 -215 -70 -228 -39 -15 -102 -60 -119
-87 -31 -47 -74 -185 -74 -237 0 -68 14 -112 59 -192 28 -49 40 -84 44 -126
13 -134 116 -227 251 -227 33 0 52 -6 66 -20 12 -12 31 -19 48 -18 40 3 49 -6
57 -59 9 -60 61 -149 98 -165 15 -7 27 -21 27 -31 0 -43 45 -165 65 -173 10
-5 22 -19 25 -31 9 -37 89 -113 119 -113 10 0 36 -13 58 -29 31 -22 60 -32
116 -40 63 -9 80 -15 106 -42 17 -17 31 -34 31 -39 0 -5 14 -4 30 1 17 6 30
14 30 18 0 9 98 67 128 76 46 14 19 -12 -46 -44 -86 -42 -136 -87 -195 -176
-55 -84 -139 -175 -161 -175 -9 0 -28 -19 -42 -42 -22 -34 -28 -57 -30 -117
-2 -41 -1 -78 2 -83 3 -5 17 8 31 29 14 21 44 58 66 83 23 25 66 95 96 155 48
94 64 116 116 157 62 50 89 61 78 31 -5 -14 -1 -13 19 5 20 18 27 20 36 9 8
-9 7 -23 -3 -52 -8 -22 -14 -53 -15 -68 0 -15 -9 -45 -20 -67 -21 -41 -65
-275 -79 -420 -4 -47 -12 -93 -16 -103 -7 -17 -6 -18 14 -6 14 10 21 25 22 49
4 87 6 109 18 179 7 40 19 90 26 110 l12 36 12 -42 c13 -46 83 -138 150 -195
49 -41 52 -70 21 -169 -12 -41 -16 -67 -10 -73 13 -13 13 -97 0 -116 -5 -8
-10 -13 -11 -10 0 3 -2 15 -5 27 -2 12 1 25 6 28 12 8 13 45 1 45 -19 0 -30
-103 -12 -114 5 -3 9 -23 9 -43 l0 -38 -24 54 c-36 81 -39 55 -4 -35 16 -43
30 -82 30 -86 0 -15 -29 -8 -40 10 -9 14 -10 13 -4 -8 8 -32 23 -50 40 -50 8
0 14 -9 14 -20 0 -12 9 -38 20 -60 11 -22 20 -50 20 -62 -1 -22 -1 -22 -15 -5
-7 11 -12 24 -9 31 3 7 -7 23 -21 36 -23 22 -25 22 -26 4 0 -18 -1 -18 -9 1
-5 11 -20 34 -35 50 l-26 30 22 -45 c12 -25 33 -59 46 -77 14 -18 22 -36 19
-41 -3 -6 1 -15 9 -22 8 -7 15 -17 15 -23 0 -6 -11 0 -24 12 l-23 22 -6 -23
c-4 -12 -4 -24 -2 -27 3 -2 5 2 5 10 0 12 2 12 9 0 5 -8 5 -25 -1 -41 -12 -35
11 -93 43 -111 23 -12 23 -12 6 12 -31 43 -48 79 -37 79 5 0 18 -17 29 -37 25
-51 49 -71 97 -81 39 -9 39 -9 11 -17 -18 -5 -33 -3 -40 4 -17 17 -27 13 -27
-10 0 -15 5 -19 16 -15 9 3 12 2 8 -5 -6 -11 33 -59 48 -59 4 0 18 -10 30 -22
16 -16 17 -20 5 -15 -26 10 -21 -2 24 -52 22 -25 43 -50 47 -56 4 -5 21 -29
37 -52 17 -24 34 -41 40 -39 5 1 18 17 28 34 l19 32 -35 0 c-21 0 -44 8 -58
21 l-24 21 25 -7 c14 -4 36 -8 50 -9 14 -1 30 -5 36 -9 15 -9 98 99 90 116 -3
7 -13 21 -21 33 -15 20 -14 21 27 20 41 -1 43 1 87 66 42 62 161 223 264 359
125 164 355 419 467 517 41 36 88 84 104 106 15 23 56 70 91 106 65 69 105
126 105 154 0 20 57 74 87 82 13 3 37 32 60 71 21 36 56 86 77 111 l40 44 18
-22 c17 -21 17 -23 -7 -71 -26 -51 -24 -61 7 -32 36 32 34 7 -15 -157 -14 -47
-28 -94 -32 -105 -20 -63 45 78 80 175 50 137 96 234 110 231 6 -1 9 -27 8
-59 -1 -41 -18 -102 -61 -222 -60 -168 -87 -261 -80 -280 5 -16 193 394 214
465 26 94 84 198 84 151 0 -8 -7 -50 -15 -93 -19 -101 -19 -124 0 -117 18 7
19 19 -5 -110 -20 -111 -59 -240 -136 -451 -24 -66 -55 -169 -68 -230 -13 -60
-41 -146 -61 -190 -20 -44 -48 -109 -61 -144 -24 -63 -166 -328 -228 -426 -18
-27 -52 -86 -76 -129 -23 -43 -63 -103 -87 -132 -23 -30 -63 -78 -87 -108 -30
-37 -50 -76 -66 -127 -12 -40 -36 -100 -52 -134 -32 -63 -140 -219 -203 -295
l-38 -45 5 35 c4 20 26 89 50 155 52 138 85 302 92 457 7 134 38 277 72 336
14 24 65 104 113 177 47 73 95 148 106 166 l19 34 4 -33 c5 -47 -41 -184 -88
-264 -41 -69 -55 -116 -19 -63 67 99 105 198 124 325 18 117 32 160 85 249
l42 70 4 158 c2 87 2 154 0 148 -3 -5 -12 -61 -21 -124 -17 -121 -33 -173 -74
-235 l-26 -40 -9 37 c-16 62 -24 51 -42 -58 -9 -56 -78 -216 -127 -294 -60
-96 -85 -129 -149 -198 -32 -34 -70 -87 -84 -118 -29 -62 -44 -70 -19 -10 17
39 11 63 -9 32 -6 -10 -41 -59 -77 -110 -36 -51 -85 -128 -109 -171 -24 -44
-50 -87 -59 -96 -20 -21 -48 -66 -67 -107 -16 -36 -29 -42 -38 -17 -3 9 15 55
44 108 27 51 54 116 60 145 6 32 29 86 58 134 181 303 298 517 264 482 -5 -5
-33 -44 -62 -85 -30 -41 -91 -121 -137 -178 -85 -104 -170 -233 -233 -355 -19
-37 -38 -67 -42 -67 -12 0 2 73 17 90 8 9 15 19 15 23 0 3 18 35 40 69 27 43
40 74 39 98 l0 35 -22 -39 c-33 -57 -94 -139 -185 -249 -45 -54 -82 -100 -82
-102 0 -3 8 -2 18 1 9 3 4 -5 -13 -18 -16 -13 -50 -41 -75 -64 -25 -22 -86
-73 -137 -113 -114 -89 -166 -158 -243 -318 -83 -173 -156 -268 -371 -488
-102 -104 -227 -235 -277 -291 -100 -111 -331 -333 -387 -371 -19 -13 -40 -21
-45 -18 -6 4 -57 -21 -114 -54 -58 -34 -111 -61 -119 -61 -9 0 -25 12 -36 27
-12 16 -30 39 -41 51 -36 43 -27 98 28 178 58 82 82 126 82 151 0 10 -27 47
-61 83 -97 104 -116 152 -129 335 -4 66 -16 192 -25 281 -16 152 -16 168 0
285 9 68 23 201 30 294 l13 170 77 225 c42 124 94 257 116 297 38 70 89 210
89 246 0 32 -22 14 -98 -79 -139 -169 -176 -231 -377 -632 -77 -152 -148 -281
-166 -301 -30 -31 -36 -33 -81 -29 -31 3 -79 20 -126 44 -64 33 -91 55 -176
150 -257 284 -312 357 -364 482 -30 73 -36 100 -37 172 -3 109 7 147 49 196
l35 39 -25 -49 c-61 -125 -9 -316 145 -532 75 -104 271 -324 327 -367 56 -42
143 -87 172 -87 24 0 57 37 66 74 l7 28 -23 -27 c-22 -25 -26 -26 -65 -16 -62
17 -129 66 -269 198 -146 137 -235 250 -302 382 -46 93 -47 96 -47 190 0 85 3
103 27 151 28 55 121 170 139 170 5 0 -8 -21 -28 -47 -61 -80 -75 -131 -52
-190 10 -27 11 -27 25 -9 8 11 14 30 14 42 0 14 12 31 33 45 17 12 26 16 19 9
-10 -12 -7 -18 14 -37 29 -25 44 -29 44 -12 0 5 4 7 10 4 6 -3 10 1 10 9 0 9
6 13 15 10 8 -3 30 3 48 15 19 12 42 21 51 21 10 0 16 9 16 25 0 16 4 23 13
19 10 -3 17 11 26 48 7 29 23 73 37 98 14 25 22 36 18 25 -9 -26 -18 -145 -11
-145 3 0 11 17 18 38 7 20 19 53 27 72 l14 34 13 -24 12 -23 12 21 c6 11 11
26 11 32 0 6 13 25 29 40 l29 29 -5 -102 c-4 -68 -1 -122 8 -162 l14 -60 5
120 c5 118 6 121 44 182 39 64 88 123 100 123 4 0 17 10 29 23 51 54 257 192
257 172 0 -2 -17 -13 -37 -24 -52 -26 -182 -128 -220 -171 -16 -19 -42 -54
-57 -78 -23 -37 -25 -48 -18 -80 5 -20 10 -64 11 -97 3 -97 38 -205 117 -361
57 -113 72 -152 68 -173 -9 -37 2 -23 87 109 41 63 119 171 174 239 55 68 104
130 110 137 6 9 4 29 -8 61 -24 68 -33 175 -17 213 7 16 36 47 64 67 133 95
157 118 215 203 60 87 73 112 49 92 -7 -5 -58 -12 -113 -15 -55 -2 -136 -12
-180 -22 -92 -19 -216 -65 -209 -77 3 -4 -1 -5 -9 -2 -8 3 -55 -13 -103 -36
-49 -23 -111 -50 -139 -60 -98 -34 -270 -128 -325 -178 -56 -50 -135 -89 -246
-122 -151 -44 -328 -178 -379 -287 -14 -28 -16 -55 -13 -132 4 -91 7 -101 55
-201 52 -107 98 -174 237 -345 l79 -97 -34 -46 c-42 -60 -52 -143 -23 -188 16
-23 18 -44 16 -118 -3 -98 -28 -180 -67 -226 -48 -55 -55 -74 -55 -140 0 -81
-22 -183 -49 -237 -14 -27 -21 -57 -21 -89 2 -92 -10 -199 -30 -279 -12 -44
-25 -115 -30 -157 -6 -54 -20 -100 -44 -150 -25 -53 -36 -92 -40 -143 -6 -69
-11 -91 -76 -305 -32 -105 -62 -174 -79 -185 -17 -10 -42 -68 -55 -130 -24
-107 -57 -219 -83 -280 -61 -144 -75 -193 -75 -257 1 -31 -6 -64 -19 -86 -10
-20 -19 -42 -19 -49 0 -6 -8 -18 -18 -25 -44 -32 -108 -171 -97 -210 5 -18 4
-20 -4 -8 -6 9 -11 10 -11 3 0 -6 -3 -19 -7 -29 -5 -13 -3 -15 7 -9 8 5 11 3
9 -4 -3 -7 -8 -11 -13 -9 -6 2 -35 -61 -36 -79 0 -1 7 0 15 3 8 4 12 11 8 18
-4 8 -3 8 6 0 8 -7 5 -23 -14 -62 -29 -60 -31 -77 -10 -68 12 4 14 0 9 -18 -5
-20 -1 -25 28 -34 39 -12 824 -18 1198 -10 113 3 114 3 120 28 l6 25 119 -1
c66 0 123 3 126 9 4 5 15 3 27 -4 17 -10 28 -11 51 -3 17 7 35 8 42 3 8 -5 26
-9 41 -9 20 0 26 4 22 14 -6 15 23 16 57 2 9 -4 60 -5 113 -2 60 3 96 1 96 -5
0 -6 8 -8 18 -5 12 4 29 -4 49 -23 28 -27 35 -28 104 -27 41 1 83 7 94 13 19
11 174 30 205 26 25 -4 294 -14 445 -18 168 -4 158 -3 150 -14 -6 -11 28 -6
48 6 15 10 187 11 180 1 -2 -4 3 -5 11 -2 8 3 25 -1 38 -9 13 -9 36 -13 53
-10 59 9 316 0 337 -13 9 -6 1465 -17 1983 -15 443 2 1165 -6 1165 -12 0 -5 5
-5 10 -2 6 4 244 7 530 8 285 1 517 4 515 7 -5 8 309 5 323 -4 6 -4 12 -3 12
3 0 6 11 6 29 1 16 -4 31 -7 33 -4 2 2 33 3 68 3 36 0 157 0 270 1 263 0 268
0 312 -3 20 -1 35 0 33 3 -4 6 316 11 485 8 107 -2 373 22 381 34 3 5 15 8 25
7 11 -2 37 6 59 18 22 11 43 20 46 19 12 -2 68 47 63 55 -3 5 -11 6 -17 3 -9
-5 -9 -3 0 6 10 11 15 11 28 0 12 -10 15 -10 15 4 0 9 8 16 20 16 11 0 20 4
20 9 0 15 -29 33 -42 25 -9 -5 -10 -4 -2 5 11 13 74 4 74 -10 0 -5 5 -9 10 -9
6 0 10 7 10 15 0 22 21 18 50 -8 36 -33 92 -73 113 -80 13 -5 17 -1 16 21 0
24 -1 24 -8 7 -7 -16 -11 -8 -21 38 -11 45 -19 61 -36 67 -33 13 -106 109
-102 134 2 12 10 21 18 21 8 1 26 7 39 14 22 12 23 17 17 77 -8 78 -15 101
-27 83 -6 -11 -13 -10 -33 1 -26 13 -36 40 -15 40 8 0 9 13 5 40 -7 44 -2 48
31 22 24 -19 53 -89 53 -130 0 -14 3 -22 7 -19 3 4 1 44 -5 89 -6 46 -18 144
-28 218 -9 74 -23 164 -31 200 -8 36 -15 110 -15 165 1 63 -6 130 -18 180 -10
44 -24 118 -30 165 -13 91 -21 108 -83 183 -39 47 -40 50 -28 82 10 29 7 65
-24 251 l-36 217 27 28 27 28 -31 123 c-17 68 -33 155 -37 193 -9 97 -33 169
-72 215 -51 60 -61 92 -58 205 2 113 -3 134 -46 183 -27 31 -30 41 -26 76 5
32 0 54 -23 101 -51 106 -90 219 -90 260 0 24 -8 50 -20 65 -11 14 -20 40 -20
58 0 44 -27 83 -106 157 -62 58 -65 64 -71 117 l-6 56 39 20 c205 107 502 400
586 578 28 59 33 80 33 144 0 121 -51 195 -210 308 -71 51 -258 142 -355 173
-64 21 -175 81 -210 113 -33 31 -143 86 -170 86 -7 0 -67 18 -134 39 -155 51
-179 55 -221 41 -42 -14 -64 -4 -38 17 16 13 10 14 -62 10 -81 -5 -105 -2
-105 13 0 13 32 17 63 9 16 -5 25 -4 22 1 -10 16 -77 30 -175 36 -52 4 -104
13 -116 20 -11 8 -43 17 -70 20 -27 3 -121 28 -209 56 -199 62 -215 68 -215
80 0 5 -16 34 -35 64 -19 30 -35 57 -35 60 0 3 17 31 39 62 21 31 48 77 61
102 l23 44 22 -28 c18 -23 21 -35 15 -57 -5 -16 -5 -29 -1 -29 18 0 41 39 41
68 0 81 59 -18 61 -102 0 -26 2 -28 9 -11 15 35 11 129 -9 208 -16 62 -19 99
-15 204 4 122 2 131 -22 68 -6 -16 -9 -13 -15 20 -4 22 -8 63 -8 90 -1 28 -8
90 -17 139 -19 110 -59 184 -147 274 -74 75 -97 83 -32 10 95 -106 118 -163
145 -365 31 -230 25 -289 -17 -155 -31 99 -60 162 -74 162 -5 0 -8 -8 -6 -17
3 -10 8 -35 12 -57 3 -21 9 -35 12 -32 6 6 32 -23 33 -36 0 -3 -11 -1 -25 5
-18 8 -32 30 -47 70 -11 31 -25 57 -29 57 -5 0 -9 11 -9 23 0 13 -13 42 -29
63 -17 24 -31 59 -35 89 -4 28 -14 66 -23 85 -9 19 -19 69 -24 111 -8 86 -16
104 -66 167 -28 35 -37 56 -44 110 -10 82 -19 113 -53 178 -14 29 -26 59 -26
68 0 41 -137 155 -277 232 -64 35 -76 47 -144 131 -74 93 -81 133 -48 284 13
57 25 134 27 171 3 61 0 75 -39 164 -30 66 -65 125 -112 183 -78 98 -99 139
-121 233 -25 113 -81 210 -178 314 -48 51 -89 103 -92 116 -2 13 -12 61 -20
108 -21 111 -63 194 -149 294 -38 44 -80 97 -93 116 -13 19 -34 47 -46 62 -12
15 -18 31 -14 35 4 4 16 -3 26 -17 17 -22 20 -23 20 -6 0 11 -9 49 -20 85 -11
36 -27 93 -37 126 -16 55 -18 57 -21 28 -2 -18 -7 -33 -11 -33 -5 0 -34 57
-66 127 -55 123 -57 130 -58 219 -2 109 -18 141 -38 76 -6 -23 -16 -39 -20
-36 -4 2 -27 39 -50 82 -23 42 -56 97 -74 122 -17 25 -42 65 -55 88 -25 45
-82 92 -258 213 -135 92 -188 120 -304 158 -57 19 -112 38 -123 44 -13 7 -20
6 -23 -1 -2 -6 -19 7 -39 29 -50 55 -140 107 -215 123 -34 8 -96 21 -136 30
-40 9 -97 27 -126 41 -82 39 -141 45 -339 39 -130 -4 -178 -3 -167 5 8 6 65
11 130 11 91 0 112 3 102 13 -18 17 -172 18 -317 2z m-956 -533 c-16 -45 -43
-74 -62 -66 -24 9 -21 19 19 64 40 44 58 45 43 2z m669 -62 c13 -9 9 -10 -23
-6 -22 3 -55 6 -73 6 -22 0 -31 4 -26 11 8 14 95 5 122 -11z m-548 -29 c-24
-48 -34 -55 -50 -36 -11 13 -8 21 15 45 42 44 60 39 35 -9z m365 -71 c-52 -25
-99 -57 -133 -91 -54 -54 -78 -60 -47 -12 32 48 110 103 183 129 76 27 74 12
-3 -26z m-1056 -284 c-2 -2 -20 -11 -39 -20 l-35 -17 24 21 c13 11 30 20 39
20 8 0 13 -2 11 -4z m95 -61 c-4 -8 -10 -15 -14 -15 -5 0 -45 -34 -90 -75 -46
-42 -85 -74 -87 -71 -8 8 36 82 69 115 50 50 136 83 122 46z m-49 -161 c-41
-34 -65 -47 -65 -35 0 14 62 61 80 61 9 -1 4 -10 -15 -26z m1745 -1648 c0 -3
-4 -8 -10 -11 -5 -3 -10 -1 -10 4 0 6 5 11 10 11 6 0 10 -2 10 -4z m-2330 -20
c0 -3 -4 -8 -10 -11 -5 -3 -10 -1 -10 4 0 6 5 11 10 11 6 0 10 -2 10 -4z m-45
-134 c-53 -42 -60 -46 -33 -19 16 15 31 27 35 27 4 0 3 -3 -2 -8z m3529 -104
c-15 -23 -29 -37 -31 -31 -5 13 46 87 54 79 2 -2 -8 -24 -23 -48z m-2245 -1
c6 -8 14 -28 17 -44 6 -30 6 -31 -51 -40 -60 -11 -116 -5 -122 13 -2 6 6 23
17 37 32 40 116 60 139 34z m2301 -10 c0 -2 -12 -14 -27 -28 l-28 -24 24 28
c23 25 31 32 31 24z m-3649 -414 c-9 -15 -10 -12 -11 18 0 20 3 39 8 43 11 12
14 -42 3 -61z m1181 -107 c-3 -29 0 -36 27 -52 54 -32 44 -39 -66 -48 -86 -7
-93 4 -33 48 21 16 44 42 49 58 14 39 28 35 23 -6z m4296 -206 c90 -47 196
-143 188 -172 -2 -11 5 -45 17 -78 18 -49 19 -61 9 -72 -11 -11 -31 5 -111 87
-86 90 -201 241 -201 266 0 16 18 10 98 -31z m-4224 0 c103 0 121 -9 88 -42
-18 -18 -38 -22 -164 -28 -111 -5 -150 -10 -168 -23 -30 -21 -40 -21 -40 -2 0
45 131 124 172 103 9 -4 59 -8 112 -8z m-299 -167 c7 -40 53 -161 67 -180 7
-9 19 -6 47 13 35 23 48 25 157 25 103 1 224 -9 457 -37 64 -8 86 -23 35 -25
-18 -1 -37 -2 -43 -4 -5 -1 -29 -3 -52 -3 -33 -2 -41 -5 -37 -17 7 -17 -56
-85 -78 -85 -9 0 -21 -6 -27 -14 -10 -12 -52 -25 -101 -31 -8 -1 -31 -7 -50
-13 -19 -6 -63 -16 -98 -22 -34 -6 -84 -20 -110 -31 -26 -12 -76 -25 -112 -30
-35 -5 -67 -14 -71 -21 -16 -26 -33 45 -40 172 -5 97 -13 152 -28 194 -31 86
-28 114 12 131 52 23 64 19 72 -22z m-1024 -546 c-8 -8 -11 5 -11 44 0 72 14
86 18 18 2 -28 -2 -57 -7 -62z m1396 -123 c13 -2 34 -22 48 -44 14 -21 34 -44
45 -50 30 -16 24 -30 -12 -30 -32 -1 -32 -1 -13 -16 11 -9 49 -30 85 -47 54
-25 62 -31 45 -38 -11 -4 -38 -8 -60 -9 l-40 -1 70 -35 c81 -41 175 -103 175
-116 0 -4 0 -11 0 -15 0 -5 -49 -7 -108 -6 l-107 2 45 -15 c31 -11 64 -13 107
-9 63 6 97 -9 48 -21 -39 -10 -21 -22 43 -29 103 -11 129 -34 70 -60 l-33 -14
40 -1 c50 -1 142 -25 128 -33 -5 -4 -43 -11 -83 -18 -68 -10 -194 -3 -280 17
-24 5 -24 5 -5 -11 11 -8 35 -20 55 -25 35 -9 376 -30 478 -30 28 0 52 -4 52
-9 0 -15 -94 -31 -257 -43 -155 -12 -173 -20 -72 -32 31 -4 78 -14 104 -22 36
-10 107 -14 286 -14 131 0 240 -4 243 -9 3 -5 -14 -14 -38 -20 -24 -6 -74 -25
-112 -42 -74 -33 -210 -62 -393 -84 -281 -35 -68 -43 479 -20 121 5 132 5 110
-9 -31 -17 -338 -81 -493 -101 -169 -22 -196 -20 -342 29 -139 47 -232 95
-280 146 -27 28 -30 38 -31 101 -1 62 -4 72 -25 86 -38 25 -49 44 -49 84 0 51
11 54 43 13 28 -34 87 -72 87 -55 0 5 -31 34 -70 66 -140 114 -154 150 -105
262 23 50 25 66 19 124 -5 52 -3 74 10 100 19 38 20 61 5 76 -7 7 -9 19 -6 27
6 15 19 15 94 0z m-907 -456 c0 -16 -3 -19 -11 -11 -6 6 -8 16 -5 22 11 17 16
13 16 -11z m85 -90 c10 -41 -12 -35 -30 8 -8 20 -15 41 -15 47 0 20 39 -27 45
-55z m1362 6 c-3 -3 -12 -4 -19 -1 -8 3 -5 6 6 6 11 1 17 -2 13 -5z m-537
-445 c66 -63 142 -107 238 -140 48 -16 92 -29 99 -29 17 0 -46 61 -85 83 -18
9 -37 15 -42 12 -13 -8 -107 24 -133 45 -35 29 -16 31 38 4 28 -13 75 -29 105
-35 112 -22 308 -90 325 -112 14 -20 138 -32 300 -29 174 2 144 -13 -57 -28
-144 -11 -365 -1 -470 21 -80 17 -175 56 -234 95 -60 40 -134 116 -134 139 0
21 1 20 50 -26z m2310 -182 c7 -28 10 -86 7 -127 -23 -347 -24 -347 -91 -492
-20 -42 -36 -82 -36 -89 0 -29 -42 -151 -50 -143 -7 9 -1 174 19 439 7 96 16
150 35 205 15 41 38 115 51 164 14 48 28 92 31 97 10 18 23 -2 34 -54z m-2274
-28 c21 -42 27 -49 37 -36 14 17 84 30 92 16 4 -5 15 -9 27 -9 17 0 18 -3 9
-14 -7 -8 -11 -27 -9 -43 4 -38 56 -65 193 -100 103 -26 123 -28 312 -28 111
0 196 -3 189 -7 -19 -11 -217 -28 -319 -28 -213 0 -475 95 -537 195 -21 33
-39 105 -26 105 3 0 17 -23 32 -51z m29 33 c-3 -3 -11 0 -18 7 -9 10 -8 11 6
5 10 -3 15 -9 12 -12z m-116 -30 c19 -37 103 -123 153 -156 14 -9 68 -33 120
-52 62 -23 80 -33 53 -29 -62 10 -171 59 -228 104 -57 44 -127 129 -127 155 0
25 8 19 29 -22z m3618 -114 c-14 -9 -81 -11 -90 -2 -3 4 -2 15 3 25 10 17 12
17 55 1 29 -10 40 -19 32 -24z m-3618 -122 c32 -56 67 -90 102 -101 10 -4 22
-18 25 -32 7 -27 55 -53 99 -53 15 0 24 -4 20 -10 -3 -5 -1 -10 4 -10 6 0 11
4 11 10 0 5 19 23 42 40 51 37 109 40 171 8 23 -11 37 -23 30 -25 -6 -2 -24 2
-40 11 -76 39 -141 23 -182 -45 -10 -17 -21 -26 -25 -21 -3 5 -27 15 -52 21
-92 23 -151 68 -216 164 -35 52 -41 68 -44 126 l-4 66 14 -47 c7 -25 28 -71
45 -102z m3609 88 c58 4 91 3 88 -3 -8 -12 -95 -31 -142 -31 -46 0 -104 25
-104 45 0 14 3 14 32 -1 26 -14 49 -15 126 -10z m2150 20 c21 -4 29 -11 25
-20 -7 -19 -33 -18 -33 1 0 12 -5 13 -17 7 -25 -13 -113 -23 -113 -14 0 5 19
13 43 19 57 14 60 14 95 7z m-5793 -181 c20 -27 60 -73 89 -104 29 -30 56 -60
60 -67 17 -28 -10 -8 -77 56 -80 76 -60 42 37 -63 51 -56 67 -68 77 -58 10 10
9 17 -7 34 l-19 22 31 -18 c30 -17 32 -20 28 -71 -2 -30 -1 -54 2 -54 3 0 15
10 25 23 30 33 6 -9 -26 -48 -23 -28 -25 -28 -25 -8 0 27 -19 40 -31 22 -5 -8
-16 -34 -26 -59 -33 -91 -45 -115 -50 -102 -3 8 5 42 16 78 37 108 39 100 -47
184 -54 53 -89 99 -116 150 -35 66 -38 78 -33 131 7 80 16 89 38 40 10 -22 34
-62 54 -88z m5719 118 c3 -5 -1 -14 -9 -21 -13 -10 -15 -9 -15 9 0 21 14 28
24 12z m260 -6 c-7 -16 -30 -20 -38 -6 -7 11 4 21 25 21 12 0 16 -5 13 -15z
m-5884 -27 c0 -21 67 -79 103 -90 l42 -13 -44 -3 c-49 -4 -72 12 -122 85 -35
51 -36 54 -4 40 14 -7 25 -15 25 -19z m2991 5 c-6 -10 -42 -54 -82 -98 -67
-75 -90 -105 -197 -258 -121 -172 -202 -346 -234 -502 -42 -204 -43 -711 -2
-827 17 -50 18 -67 1 -44 -11 15 -12 11 -9 -26 5 -74 -14 -21 -39 107 -43 224
-28 726 28 900 34 109 151 313 265 463 61 81 262 302 274 302 3 0 0 -8 -5 -17z
m3055 -14 c15 -13 10 -29 -10 -29 -8 0 -31 8 -52 17 -22 9 -42 16 -46 15 -5
-1 -8 3 -8 9 0 15 96 5 116 -12z m-5703 -16 c-7 -2 -19 -2 -25 0 -7 3 -2 5 12
5 14 0 19 -2 13 -5z m4982 -13 c-3 -5 -11 -10 -16 -10 -6 0 -7 5 -4 10 3 6 11
10 16 10 6 0 7 -4 4 -10z m92 -16 c-3 -3 -12 -4 -19 -1 -8 3 -5 6 6 6 11 1 17
-2 13 -5z m730 -11 c2 -6 -3 -13 -12 -16 -10 -5 -15 0 -15 14 0 21 21 22 27 2z
m-638 -9 c2 -2 -7 -4 -22 -4 -14 0 -29 5 -32 10 -6 10 42 4 54 -6z m-4009 -41
c-1 -21 -15 -48 -48 -88 -33 -41 -36 -25 -6 28 14 26 23 47 19 47 -4 0 -2 7 5
15 17 20 30 19 30 -2z m-872 -69 c36 -26 97 -102 89 -110 -2 -3 -12 7 -22 22
-25 39 -63 70 -120 99 -45 24 -47 26 -17 21 19 -3 50 -18 70 -32z m-90 -29
c36 -16 112 -81 112 -97 0 -4 -7 -8 -15 -8 -8 0 -20 -9 -27 -19 -9 -15 -19
-18 -42 -14 -28 6 -30 5 -17 -10 14 -18 46 -23 55 -8 3 4 18 11 34 14 16 3 33
16 40 29 10 22 11 22 11 2 1 -20 -33 -58 -54 -60 -43 -5 -75 -34 -37 -34 15 0
15 -2 2 -11 -12 -8 -11 -9 7 -4 16 4 26 -2 43 -25 19 -27 19 -29 3 -24 -10 3
-2 -9 18 -28 46 -41 56 -61 65 -126 4 -36 3 -52 -5 -52 -6 0 -11 14 -11 30 0
42 -31 98 -76 140 -30 28 -35 30 -22 10 19 -32 34 -105 19 -95 -6 3 -11 -1
-11 -10 0 -11 5 -15 15 -11 8 3 15 1 15 -4 0 -6 -5 -10 -11 -10 -7 0 -9 -12
-5 -35 4 -22 3 -35 -4 -35 -5 0 -10 12 -10 28 0 25 -43 132 -53 132 -3 0 1
-17 9 -37 7 -21 13 -47 13 -58 0 -19 0 -19 -13 -2 -22 29 -27 20 -21 -40 5
-48 3 -54 -6 -38 -7 11 -17 23 -23 27 -15 10 -38 -13 -33 -33 3 -12 0 -16 -9
-12 -8 3 -14 -1 -14 -7 0 -9 -6 -8 -19 4 -16 15 -22 15 -40 4 -11 -7 -20 -17
-19 -23 6 -39 -17 -87 -58 -120 -44 -37 -56 -37 -29 -1 12 15 12 22 3 27 -9 6
-8 13 5 27 19 21 23 37 6 27 -15 -10 -59 -13 -59 -5 0 4 10 14 23 23 36 25 5
46 -74 52 l-66 4 -12 -52 c-6 -28 -14 -84 -18 -124 -9 -111 -27 -79 -19 36 8
134 21 205 45 252 34 64 94 139 112 139 9 0 22 7 29 15 7 8 27 19 44 24 l31 9
-34 1 c-53 1 -104 -41 -172 -141 -32 -49 -59 -83 -59 -74 0 21 96 161 132 191
17 14 28 29 24 32 -13 14 -135 -138 -161 -201 -11 -26 -13 -41 -6 -45 7 -5 7
-26 -2 -69 -7 -35 -16 -60 -20 -56 -4 4 -14 -1 -23 -12 -14 -17 -14 -15 -9 36
14 119 37 167 147 303 l50 62 -76 -77 c-62 -63 -72 -70 -59 -42 9 19 23 34 30
34 12 0 17 13 14 33 0 4 4 7 10 7 5 0 8 4 4 9 -8 14 54 81 76 81 36 0 19 19
-56 60 -41 23 -75 45 -75 50 0 11 37 -5 123 -54 65 -36 68 -37 92 -22 29 19
32 31 9 40 -23 9 -36 -3 -29 -25 7 -22 5 -23 -30 -7 -29 13 -31 21 -9 42 24
25 61 30 88 13 22 -15 66 -13 66 3 0 10 -47 30 -70 30 -11 0 -20 5 -20 10 0
23 62 6 165 -45 76 -38 113 -51 120 -44 13 13 -38 59 -66 59 -10 0 -19 5 -19
10 0 6 -11 10 -25 10 -18 0 -23 4 -19 15 8 19 16 19 62 0z m3700 -74 c-182
-169 -522 -411 -753 -535 -119 -64 -157 -87 -152 -93 9 -9 287 125 348 168 14
9 95 51 180 92 84 40 196 99 248 131 52 31 96 55 98 53 6 -7 -150 -108 -312
-202 -353 -207 -482 -271 -821 -410 -122 -50 -243 -112 -299 -154 -27 -21 -77
-53 -110 -71 -33 -18 -84 -48 -113 -66 -29 -19 -55 -34 -57 -34 -3 0 -5 12 -5
27 0 21 17 44 69 94 124 119 207 171 575 356 160 81 444 240 476 267 8 7 74
48 145 91 72 43 150 90 174 106 24 16 48 26 54 22 6 -3 7 -1 3 5 -3 6 -2 13 4
17 5 3 10 1 10 -5 0 -12 85 43 97 63 17 28 171 135 196 137 4 0 -21 -26 -55
-59z m-3428 8 c0 -5 -10 -9 -21 -9 -18 0 -19 2 -9 15 12 15 30 12 30 -6z m330
15 c0 -3 -21 -14 -47 -26 -58 -25 -148 -89 -184 -131 -15 -17 -31 -27 -37 -23
-20 12 -13 34 21 60 37 30 35 31 -23 11 -53 -19 -60 -19 -60 -1 0 9 50 31 148
64 140 48 182 59 182 46z m5471 -21 c13 -15 12 -15 -8 -4 -24 12 -29 21 -14
21 5 0 15 -7 22 -17z m-6291 -13 c0 -5 -4 -10 -10 -10 -5 0 -10 5 -10 10 0 6
5 10 10 10 6 0 10 -4 10 -10z m6339 -14 c10 -12 8 -13 -8 -9 -12 3 -21 9 -21
14 0 14 16 11 29 -5z m-2654 -8 c-8 -20 -259 -189 -435 -293 -58 -34 -136 -82
-175 -106 -72 -46 -150 -90 -360 -199 -246 -129 -384 -218 -477 -308 -52 -50
-79 -51 -32 -1 40 43 192 160 264 204 33 20 60 38 60 41 0 19 -192 -103 -283
-180 -37 -31 -67 -53 -67 -49 0 15 65 79 125 123 60 44 381 213 740 388 117
57 311 171 480 284 88 59 161 107 162 107 1 1 0 -5 -2 -11z m-3189 -100 c14
-22 24 -42 21 -44 -2 -2 -18 19 -35 46 -18 28 -27 48 -22 45 6 -4 22 -25 36
-47z m-76 32 c0 -5 -8 -13 -17 -18 -15 -9 -14 -13 8 -40 13 -17 30 -31 36 -31
7 -1 24 -19 38 -41 19 -30 25 -53 25 -95 0 -30 -4 -55 -10 -55 -5 0 -10 18
-10 39 0 42 -8 71 -19 71 -4 0 -6 -24 -4 -52 3 -29 -2 -94 -11 -144 -16 -102
-68 -230 -87 -218 -9 5 -7 10 5 19 25 19 56 120 66 220 12 114 12 128 0 120
-6 -3 -7 1 -4 10 4 9 -2 28 -13 43 -11 15 -23 38 -27 50 -5 15 -13 21 -22 18
-8 -3 -14 0 -14 8 0 7 -11 23 -25 36 -14 13 -25 27 -25 31 0 4 11 10 25 13 14
4 25 11 25 16 0 6 14 10 30 10 17 0 30 -4 30 -10z m4540 -155 c0 -3 -18 -17
-40 -31 -22 -15 -37 -30 -35 -34 7 -12 -33 -41 -195 -142 -80 -49 -200 -125
-268 -167 -67 -43 -168 -100 -224 -127 -222 -107 -632 -316 -1078 -550 -349
-182 -645 -296 -761 -293 -32 2 -36 3 -14 6 138 18 394 115 580 219 251 140
433 237 585 313 91 45 235 118 321 164 85 45 188 98 229 117 155 73 273 142
525 305 215 139 357 225 372 225 2 0 3 -2 3 -5z m-220 -29 c-28 -26 -434 -292
-540 -353 -58 -33 -152 -84 -210 -113 -58 -29 -191 -99 -297 -156 -106 -57
-243 -129 -305 -160 -62 -31 -178 -93 -258 -137 -154 -86 -382 -197 -492 -241
-88 -34 -172 -56 -261 -65 -88 -10 -120 -2 -129 30 -4 13 -14 48 -22 78 -27
91 -23 105 34 129 80 33 138 78 250 191 113 114 105 109 330 197 52 20 169 73
260 118 186 91 193 94 165 71 -11 -9 -99 -55 -195 -101 -96 -47 -201 -99 -233
-115 -31 -16 -61 -28 -65 -28 -4 1 -16 1 -27 0 -14 -1 -16 -4 -7 -9 8 -6 -5
-16 -40 -32 -77 -36 -99 -54 -179 -148 -64 -75 -202 -192 -227 -192 -17 0 -29
-24 -36 -73 -10 -64 4 -67 117 -28 106 36 116 39 140 40 9 1 17 6 17 12 0 6
-7 8 -17 4 -14 -5 -15 -4 -6 6 10 10 15 10 27 0 10 -8 20 -9 33 -2 10 5 50 21
88 36 73 28 400 193 447 226 14 11 29 19 32 19 2 0 33 17 68 37 266 156 910
471 942 460 6 -2 -6 -12 -26 -21 -74 -35 -35 -31 90 10 69 22 110 47 347 211
68 46 179 111 195 113 2 0 -2 -6 -10 -14z m-5010 -33 c-1 -10 -39 -60 -40 -51
0 14 23 58 32 58 4 0 8 -3 8 -7z m3910 -83 c-8 -5 -19 -10 -25 -10 -5 0 -3 5
5 10 8 5 20 10 25 10 6 0 3 -5 -5 -10z m-3303 -52 c-3 -8 -6 -5 -6 6 -1 11 2
17 5 13 3 -3 4 -12 1 -19z m283 -8 c-22 -31 -49 -54 -35 -29 10 17 47 59 52
59 3 0 -5 -13 -17 -30z m2905 -6 c-24 -19 -103 -60 -92 -48 5 5 27 21 50 36
45 29 75 37 42 12z m-3205 -51 c0 -12 -4 -25 -10 -28 -6 -4 -10 11 -10 37 0
31 3 39 10 28 5 -8 10 -25 10 -37z m-2699 4 c-10 -9 -11 -8 -5 6 3 10 9 15 12
12 3 -3 0 -11 -7 -18z m336 -59 c-1 -107 54 -265 154 -444 21 -38 22 -74 1
-74 -13 0 -116 224 -147 321 -33 103 -42 184 -25 233 6 20 13 36 15 36 2 0 3
-33 2 -72z m1796 17 c-6 -30 -28 -51 -38 -35 -7 12 20 60 34 60 4 0 6 -11 4
-25z m757 15 c0 -5 -5 -10 -11 -10 -5 0 -7 5 -4 10 3 6 8 10 11 10 2 0 4 -4 4
-10z m2875 -6 c-35 -27 -322 -168 -560 -274 -126 -57 -250 -116 -275 -133 -25
-16 -86 -73 -137 -127 -71 -75 -107 -105 -158 -130 -36 -18 -68 -30 -71 -27
-3 3 18 18 48 33 35 17 92 65 166 141 129 129 128 128 464 277 119 52 287 131
374 175 88 44 161 80 164 80 3 0 -4 -7 -15 -15z m-4988 -45 c-3 -10 -1 -22 5
-25 5 -3 7 -12 4 -19 -3 -8 -1 -15 4 -17 5 -2 -9 -25 -31 -53 -119 -150 -168
-216 -203 -274 l-39 -64 -33 64 c-68 132 -75 203 -23 223 16 6 29 14 29 18 0
4 6 8 13 8 7 0 50 24 96 54 45 30 88 57 96 60 8 3 15 10 15 16 0 5 7 10 15 10
8 0 15 5 15 11 0 5 5 7 10 4 6 -3 10 -1 10 5 0 6 5 8 11 4 6 -3 9 -15 6 -25z
m1909 -11 c-4 -23 -16 -62 -26 -85 -21 -47 -107 -180 -123 -190 -5 -3 15 30
44 73 51 76 99 184 99 224 0 11 3 20 6 20 4 0 4 -19 0 -42z m3084 -28 c-24
-19 -40 -25 -40 -15 0 5 51 34 60 34 3 0 -6 -8 -20 -19z m-3660 -75 c0 -5 -5
-3 -10 5 -5 8 -10 20 -10 25 0 6 5 3 10 -5 5 -8 10 -19 10 -25z m-2360 -35 c0
-5 -4 -10 -10 -10 -5 0 -10 5 -10 10 0 6 5 10 10 10 6 0 10 -4 10 -10z m2371
-42 c11 -21 11 -22 -4 -9 -10 7 -17 17 -17 22 0 15 9 10 21 -13z m135 -70 c17
-4 38 -15 45 -24 12 -15 11 -16 -11 -9 -58 18 -70 26 -85 54 -8 17 -15 36 -15
43 1 7 9 -2 18 -21 12 -24 27 -37 48 -43z m-68 -55 c34 -46 41 -63 18 -43 -19
15 -76 104 -75 116 0 5 6 0 12 -10 7 -10 27 -39 45 -63z m452 57 c0 -5 -4 -10
-10 -10 -5 0 -10 5 -10 10 0 6 5 10 10 10 6 0 10 -4 10 -10z m-530 -15 c16
-19 0 -19 -26 0 -16 12 -16 14 -3 15 9 0 22 -7 29 -15z m420 -28 c0 -2 -19
-21 -42 -42 l-43 -40 40 43 c36 39 45 47 45 39z m-90 -17 c0 -5 -2 -10 -4 -10
-3 0 -8 5 -11 10 -3 6 -1 10 4 10 6 0 11 -4 11 -10z m-270 -40 c0 -4 -8 -10
-17 -14 -10 -3 -24 -9 -30 -12 -8 -3 -13 1 -13 10 0 9 7 16 15 16 8 0 15 4 15
10 0 5 7 7 15 4 8 -4 15 -10 15 -14z m190 10 c0 -5 -4 -10 -10 -10 -5 0 -10 5
-10 10 0 6 5 10 10 10 6 0 10 -4 10 -10z m190 -14 c0 -3 -4 -8 -10 -11 -5 -3
-10 -1 -10 4 0 6 5 11 10 11 6 0 10 -2 10 -4z m-255 -36 c3 -5 1 -10 -4 -10
-6 0 -11 5 -11 10 0 6 2 10 4 10 3 0 8 -4 11 -10z m197 -35 c0 -5 -5 -11 -11
-13 -6 -2 -11 4 -11 13 0 9 5 15 11 13 6 -2 11 -8 11 -13z m2261 -18 c-18 -31
-190 -163 -200 -154 -18 18 54 85 148 137 62 34 63 34 52 17z m-2367 -22 c-22
-17 -56 -20 -56 -6 0 8 19 14 65 19 6 1 1 -5 -9 -13z m2858 -126 c-3 -6 -21
-17 -38 -25 -17 -8 -51 -26 -76 -41 -59 -33 -202 -94 -208 -88 -7 6 -9 5 73
45 39 19 72 37 75 40 12 12 94 50 108 50 10 0 26 7 36 15 23 18 40 20 30 4z
m3182 -116 c-8 -8 -56 25 -56 38 0 6 14 1 31 -11 16 -12 28 -25 25 -27z m25
-30 c13 -16 12 -17 -3 -4 -10 7 -18 15 -18 17 0 8 8 3 21 -13z m-5335 -215
c-8 -88 -68 -285 -103 -336 -10 -14 -53 -94 -96 -177 -43 -82 -85 -161 -92
-175 -29 -55 -65 -138 -65 -148 0 -7 -4 -12 -10 -12 -6 0 -4 16 4 38 8 20 38
111 67 202 28 91 73 224 99 295 26 72 51 149 55 172 3 22 15 49 26 59 11 10
39 51 61 91 23 40 46 73 51 73 6 0 7 -33 3 -82z m5424 4 c0 -38 -12 -37 -15 1
-1 12 -6 31 -10 42 -8 18 -7 19 8 6 10 -8 17 -28 17 -49z m-5900 -1 c0 -5 -12
-16 -26 -26 l-27 -17 19 26 c19 26 34 33 34 17z m5938 -142 c13 -28 21 -53 18
-56 -3 -3 -10 6 -15 21 -6 14 -18 40 -26 56 -9 17 -12 30 -8 30 5 0 18 -23 31
-51z m-6158 -160 c-7 -11 -14 -18 -17 -15 -3 3 0 12 7 21 18 21 23 19 10 -6z
m6310 -221 c0 -20 -18 -5 -23 19 -5 26 -4 26 9 8 8 -10 14 -22 14 -27z m50
-303 c27 -24 50 -67 50 -92 -1 -12 -5 -7 -14 12 -7 17 -23 39 -36 50 -22 20
-61 96 -59 118 0 7 8 -6 18 -28 10 -22 28 -49 41 -60z m67 -237 c-2 -18 -4 -6
-4 27 0 33 2 48 4 33 2 -15 2 -42 0 -60z m10 -60 c-3 -8 -6 -5 -6 6 -1 11 2
17 5 13 3 -3 4 -12 1 -19z m37 -121 c10 -32 15 -61 12 -64 -3 -3 -7 0 -9 8 -2
8 -9 30 -15 49 -6 19 -13 53 -16 75 -7 45 0 30 28 -68z m-7315 37 c-41 -43
-103 -90 -79 -59 25 32 94 94 104 95 6 0 -6 -16 -25 -36z m7338 -156 c-3 -7
-5 -2 -5 12 0 14 2 19 5 13 2 -7 2 -19 0 -25z m-48 -88 c0 -10 -3 -8 -9 5 -12
27 -12 43 0 25 5 -8 9 -22 9 -30z m46 -243 c15 -87 25 -160 23 -163 -3 -2 -13
42 -22 99 -10 56 -22 124 -27 150 -9 50 -12 83 -5 76 2 -2 16 -75 31 -162z
m63 -295 c28 -34 52 -70 51 -80 0 -14 -2 -14 -9 3 -4 11 -34 49 -66 84 -32 35
-52 62 -44 59 8 -2 39 -32 68 -66z m59 -144 c-3 -8 -6 -5 -6 6 -1 11 2 17 5
13 3 -3 4 -12 1 -19z m62 -298 c0 -37 -25 37 -32 98 l-6 47 19 -60 c11 -33 20
-71 19 -85z m16 -260 c5 -24 4 -32 -3 -25 -6 6 -14 30 -17 55 -6 50 7 30 20
-30z m11 -78 c-3 -5 -1 -26 4 -48 6 -21 12 -61 15 -89 3 -27 8 -60 11 -72 2
-13 0 -23 -6 -23 -5 0 -10 9 -10 20 0 10 -22 41 -48 67 -26 26 -48 58 -49 71
-2 24 12 30 20 10 3 -7 6 -4 6 6 1 11 -6 28 -16 38 -9 10 -11 18 -5 18 6 0 17
3 26 6 11 4 17 -4 22 -30 9 -53 19 -44 16 16 -2 42 0 49 8 35 6 -9 9 -21 6
-25z"/>
<path d="M4730 7372 c0 -21 35 -52 77 -67 59 -21 303 -34 303 -16 0 12 -8 13
-165 16 -118 1 -154 12 -180 52 -15 22 -35 31 -35 15z"/>
<path d="M5036 7021 c-4 -5 13 -12 36 -16 24 -4 48 -11 53 -15 16 -12 65 -21
65 -12 0 5 -19 14 -42 21 -24 7 -53 17 -66 22 -29 11 -39 11 -46 0z"/>
<path d="M5086 6971 c-3 -5 5 -11 19 -13 28 -6 34 6 9 16 -20 8 -22 8 -28 -3z"/>
<path d="M4865 6880 c3 -5 8 -10 11 -10 2 0 4 5 4 10 0 6 -5 10 -11 10 -5 0
-7 -4 -4 -10z"/>
<path d="M4910 6785 c0 -7 73 -36 82 -33 5 2 -11 11 -37 20 -25 9 -45 15 -45
13z"/>
<path d="M5065 6730 c27 -12 43 -12 25 0 -8 5 -22 9 -30 9 -10 0 -8 -3 5 -9z"/>
<path d="M4813 6348 c-15 -20 -25 -38 -20 -38 3 0 12 11 21 25 17 26 16 35 -1
13z"/>
<path d="M5161 6408 c12 -22 11 -22 -8 -5 -24 21 -43 22 -43 2 0 -8 -5 -15
-11 -15 -5 0 -7 -4 -4 -10 9 -14 98 -13 113 2 15 15 -12 48 -40 48 -16 0 -17
-3 -7 -22z"/>
<path d="M4930 6318 c-20 -22 -19 -41 2 -20 7 7 19 12 28 12 9 0 25 7 36 15
18 14 17 14 -13 15 -21 0 -40 -8 -53 -22z"/>
<path d="M5075 6333 c-50 -10 -45 -17 17 -23 44 -4 75 -13 88 -25 11 -10 20
-14 20 -8 0 27 -84 65 -125 56z"/>
<path d="M5211 6336 c12 -10 60 -16 54 -6 -3 5 -18 10 -32 10 -15 0 -24 -2
-22 -4z"/>
<path d="M5264 6277 c28 -37 42 -44 31 -16 -3 8 -18 23 -32 34 l-27 19 28 -37z"/>
<path d="M5100 6211 c-6 -12 -7 -21 -1 -21 10 0 24 30 17 37 -2 3 -9 -5 -16
-16z"/>
<path d="M4951 6183 c-17 -21 -31 -42 -31 -47 0 -11 69 65 70 77 0 14 -9 7
-39 -30z"/>
<path d="M5330 6171 c0 -5 5 -13 10 -16 6 -3 10 -2 10 4 0 5 -4 13 -10 16 -5
3 -10 2 -10 -4z"/>
<path d="M8577 6175 c-15 -14 -26 -25 -24 -25 10 0 67 32 72 41 12 18 -21 8
-48 -16z"/>
<path d="M8429 6079 c-23 -19 -23 -20 -2 -10 12 6 25 16 28 21 10 16 -1 12
-26 -11z"/>
<path d="M7828 5713 c7 -3 16 -2 19 1 4 3 -2 6 -13 5 -11 0 -14 -3 -6 -6z"/>
<path d="M7790 5700 c-9 -6 -10 -10 -3 -10 6 0 15 5 18 10 8 12 4 12 -15 0z"/>
<path d="M7750 5680 c-9 -6 -10 -10 -3 -10 6 0 15 5 18 10 8 12 4 12 -15 0z"/>
<path d="M7710 5660 c-9 -6 -10 -10 -3 -10 6 0 15 5 18 10 8 12 4 12 -15 0z"/>
<path d="M7550 5580 c-19 -11 -30 -19 -25 -19 6 0 26 8 45 19 19 11 31 19 25
19 -5 0 -26 -8 -45 -19z"/>
<path d="M8016 5955 c-11 -8 -15 -15 -9 -15 6 0 16 7 23 15 16 19 11 19 -14 0z"/>
<path d="M7892 5894 c-46 -26 -81 -48 -79 -51 5 -4 155 73 172 88 22 21 -15 6
-93 -37z"/>
<path d="M7780 5829 c0 -5 5 -7 10 -4 6 3 10 8 10 11 0 2 -4 4 -10 4 -5 0 -10
-5 -10 -11z"/>
<path d="M5410 6260 c0 -5 5 -10 11 -10 5 0 7 5 4 10 -3 6 -8 10 -11 10 -2 0
-4 -4 -4 -10z"/>
<path d="M3120 5569 c0 -9 7 -22 15 -29 19 -16 19 0 0 26 -12 16 -14 16 -15 3z"/>
<path d="M11785 1980 c3 -5 8 -10 11 -10 2 0 4 5 4 10 0 6 -5 10 -11 10 -5 0
-7 -4 -4 -10z"/>
<path d="M4513 12563 c9 -2 25 -2 35 0 9 3 1 5 -18 5 -19 0 -27 -2 -17 -5z"/>
<path d="M5328 10815 c-11 -11 -104 -23 -119 -15 -17 10 -89 -8 -89 -22 0 -4
57 -9 128 -10 218 -4 348 6 321 23 -8 5 -9 9 -4 10 6 0 1 4 -10 9 -21 9 -218
13 -227 5z"/>
<path d="M9370 8085 c0 -4 23 -37 52 -73 55 -68 80 -69 32 -1 -26 38 -84 88
-84 74z"/>
<path d="M3670 7602 c0 -20 72 -172 82 -172 5 0 13 -12 18 -26 22 -57 83 -118
67 -66 -3 9 -13 37 -21 62 -8 25 -20 64 -26 88 -9 34 -20 48 -53 69 -23 14
-47 33 -54 42 -9 11 -12 12 -13 3z"/>
<path d="M3710 7373 c0 -32 5 -75 11 -96 12 -45 78 -123 79 -94 0 20 1 20 34
7 37 -14 33 7 -7 47 -35 35 -83 121 -92 166 -10 48 -25 29 -25 -30z"/>
<path d="M3871 7321 c-18 -18 -19 -22 -5 -17 10 4 21 1 25 -6 12 -19 19 -5 11
23 l-7 24 -24 -24z"/>
<path d="M6459 6423 c-25 -81 -69 -262 -68 -283 0 -8 9 13 19 47 10 34 30 88
45 120 24 53 47 183 32 183 -3 0 -16 -30 -28 -67z"/>
<path d="M4440 5844 c0 -6 7 -19 16 -30 14 -18 14 -18 3 6 -14 31 -19 36 -19
24z"/>
<path d="M4350 5722 c4 -21 19 -58 34 -83 29 -47 28 -33 -6 58 -23 64 -38 76
-28 25z"/>
<path d="M4610 5706 c0 -20 43 -76 58 -76 12 0 8 8 -14 33 -16 17 -32 36 -36
42 -5 5 -8 5 -8 1z"/>
<path d="M5932 5624 c-38 -46 -92 -144 -69 -126 9 8 26 34 38 58 12 25 33 59
46 75 14 16 22 29 20 29 -3 0 -19 -16 -35 -36z"/>
<path d="M2650 5516 c0 -20 67 -131 103 -169 l39 -42 -35 50 c-19 28 -51 77
-71 110 -20 33 -36 56 -36 51z"/>
<path d="M5554 5413 c-11 -16 -24 -35 -29 -43 -7 -12 -6 -13 6 -3 14 11 53 73
46 73 -2 0 -12 -12 -23 -27z"/>
<path d="M2759 5415 c5 -11 17 -29 26 -40 l16 -20 -10 20 c-5 11 -17 29 -26
40 l-16 20 10 -20z"/>
<path d="M4740 5150 c-6 -11 -7 -20 -2 -20 10 0 32 21 32 32 0 16 -19 8 -30
-12z"/>
<path d="M2827 5110 c7 -75 39 -129 90 -158 24 -13 47 -21 53 -17 17 10 11 35
-8 35 -10 0 -36 13 -59 30 -32 24 -44 41 -57 87 -25 83 -26 84 -19 23z"/>
<path d="M3030 5100 c0 -5 5 -10 10 -10 6 0 10 5 10 10 0 6 -4 10 -10 10 -5 0
-10 -4 -10 -10z"/>
<path d="M4808 5075 c-19 -25 -23 -39 -10 -31 4 2 26 1 50 -4 23 -4 42 -4 42
-1 0 8 -53 61 -61 61 -2 0 -12 -11 -21 -25z"/>
<path d="M2930 5078 c0 -16 69 -87 75 -77 4 5 5 11 3 12 -2 1 -20 18 -41 36
-20 19 -37 32 -37 29z"/>
<path d="M2890 5063 c0 -5 11 -20 25 -33 14 -13 25 -19 25 -13 0 5 -11 20 -25
33 -14 13 -25 19 -25 13z"/>
<path d="M4930 4943 c-116 -168 -123 -184 -65 -136 33 27 120 175 113 193 -2
5 -23 -21 -48 -57z"/>
<path d="M4006 4308 c-9 -95 -25 -178 -35 -178 -5 0 -6 21 -3 48 6 62 -5 50
-18 -19 -6 -29 -19 -71 -31 -92 -30 -59 -16 -55 30 7 55 74 61 93 68 208 7
114 -1 132 -11 26z"/>
<path d="M3674 4038 c-4 -7 -14 -23 -22 -35 -22 -35 -7 -27 22 12 15 19 23 35
17 35 -5 0 -13 -6 -17 -12z"/>
<path d="M3588 3906 c-9 -13 -20 -36 -23 -52 -4 -16 -13 -45 -20 -65 -11 -29
-11 -40 -2 -52 21 -26 99 -77 118 -77 11 0 35 23 57 53 45 60 135 236 102 197
-70 -81 -78 -92 -106 -147 -9 -18 -20 -33 -25 -33 -5 0 -9 -7 -9 -15 0 -20
-10 -19 -40 5 -14 11 -32 20 -41 20 -37 0 -31 106 9 158 16 21 20 32 11 32 -8
0 -22 -11 -31 -24z"/>
<path d="M3650 3740 c0 -5 5 -10 11 -10 5 0 7 5 4 10 -3 6 -8 10 -11 10 -2 0
-4 -4 -4 -10z"/>
<path d="M3430 3702 c0 -27 113 -122 145 -122 17 0 0 20 -27 31 -18 7 -52 33
-75 56 -24 23 -43 39 -43 35z"/>
<path d="M1487 1341 c-4 -17 -3 -21 5 -13 5 5 8 16 6 23 -3 8 -7 3 -11 -10z"/>
<path d="M1471 1245 c1 -19 18 -51 18 -35 0 8 -4 22 -9 30 -5 8 -9 11 -9 5z"/>
</g>
</svg>
